<svg class="main-svg" xmlns="http://www.w3.org/2000/svg" xmlns:xlink="http://www.w3.org/1999/xlink" width="1024" height="768" style="" viewBox="0 0 1024 768"><rect x="0" y="0" width="1024" height="768" style="fill: rgb(255, 255, 255); fill-opacity: 1;"/><defs id="defs-e7d4cc"><g class="clips"><clipPath id="clipe7d4ccxyplot" class="plotclip"><rect width="864" height="509"/></clipPath><clipPath class="axesclip" id="clipe7d4ccx"><rect x="80" y="0" width="864" height="768"/></clipPath><clipPath class="axesclip" id="clipe7d4ccy"><rect x="0" y="100" width="1024" height="509"/></clipPath><clipPath class="axesclip" id="clipe7d4ccxy"><rect x="80" y="100" width="864" height="509"/></clipPath></g><g class="gradients"/></defs><g class="bglayer"><rect class="bg" x="80" y="100" width="864" height="509" style="fill: rgb(229, 236, 246); fill-opacity: 1; stroke-width: 0;"/></g><g class="layer-below"><g class="imagelayer"/><g class="shapelayer"/></g><g class="cartesianlayer"><g class="subplot xy"><g class="layer-subplot"><g class="shapelayer"/><g class="imagelayer"/></g><g class="gridlayer"><g class="x"><path class="xgrid crisp" transform="translate(129.45,0)" d="M0,100v509" style="stroke: rgb(255, 255, 255); stroke-opacity: 1; stroke-width: 1px;"/><path class="xgrid crisp" transform="translate(156.78,0)" d="M0,100v509" style="stroke: rgb(255, 255, 255); stroke-opacity: 1; stroke-width: 1px;"/><path class="xgrid crisp" transform="translate(184.1,0)" d="M0,100v509" style="stroke: rgb(255, 255, 255); stroke-opacity: 1; stroke-width: 1px;"/><path class="xgrid crisp" transform="translate(211.43,0)" d="M0,100v509" style="stroke: rgb(255, 255, 255); stroke-opacity: 1; stroke-width: 1px;"/><path class="xgrid crisp" transform="translate(238.75,0)" d="M0,100v509" style="stroke: rgb(255, 255, 255); stroke-opacity: 1; stroke-width: 1px;"/><path class="xgrid crisp" transform="translate(266.08000000000004,0)" d="M0,100v509" style="stroke: rgb(255, 255, 255); stroke-opacity: 1; stroke-width: 1px;"/><path class="xgrid crisp" transform="translate(293.4,0)" d="M0,100v509" style="stroke: rgb(255, 255, 255); stroke-opacity: 1; stroke-width: 1px;"/><path class="xgrid crisp" transform="translate(320.73,0)" d="M0,100v509" style="stroke: rgb(255, 255, 255); stroke-opacity: 1; stroke-width: 1px;"/><path class="xgrid crisp" transform="translate(348.05,0)" d="M0,100v509" style="stroke: rgb(255, 255, 255); stroke-opacity: 1; stroke-width: 1px;"/><path class="xgrid crisp" transform="translate(375.38,0)" d="M0,100v509" style="stroke: rgb(255, 255, 255); stroke-opacity: 1; stroke-width: 1px;"/><path class="xgrid crisp" transform="translate(402.7,0)" d="M0,100v509" style="stroke: rgb(255, 255, 255); stroke-opacity: 1; stroke-width: 1px;"/><path class="xgrid crisp" transform="translate(430.03,0)" d="M0,100v509" style="stroke: rgb(255, 255, 255); stroke-opacity: 1; stroke-width: 1px;"/><path class="xgrid crisp" transform="translate(457.35,0)" d="M0,100v509" style="stroke: rgb(255, 255, 255); stroke-opacity: 1; stroke-width: 1px;"/><path class="xgrid crisp" transform="translate(484.67,0)" d="M0,100v509" style="stroke: rgb(255, 255, 255); stroke-opacity: 1; stroke-width: 1px;"/><path class="xgrid crisp" transform="translate(512,0)" d="M0,100v509" style="stroke: rgb(255, 255, 255); stroke-opacity: 1; stroke-width: 1px;"/><path class="xgrid crisp" transform="translate(539.3299999999999,0)" d="M0,100v509" style="stroke: rgb(255, 255, 255); stroke-opacity: 1; stroke-width: 1px;"/><path class="xgrid crisp" transform="translate(566.65,0)" d="M0,100v509" style="stroke: rgb(255, 255, 255); stroke-opacity: 1; stroke-width: 1px;"/><path class="xgrid crisp" transform="translate(593.98,0)" d="M0,100v509" style="stroke: rgb(255, 255, 255); stroke-opacity: 1; stroke-width: 1px;"/><path class="xgrid crisp" transform="translate(621.3,0)" d="M0,100v509" style="stroke: rgb(255, 255, 255); stroke-opacity: 1; stroke-width: 1px;"/><path class="xgrid crisp" transform="translate(648.63,0)" d="M0,100v509" style="stroke: rgb(255, 255, 255); stroke-opacity: 1; stroke-width: 1px;"/><path class="xgrid crisp" transform="translate(675.95,0)" d="M0,100v509" style="stroke: rgb(255, 255, 255); stroke-opacity: 1; stroke-width: 1px;"/><path class="xgrid crisp" transform="translate(703.28,0)" d="M0,100v509" style="stroke: rgb(255, 255, 255); stroke-opacity: 1; stroke-width: 1px;"/><path class="xgrid crisp" transform="translate(730.6,0)" d="M0,100v509" style="stroke: rgb(255, 255, 255); stroke-opacity: 1; stroke-width: 1px;"/><path class="xgrid crisp" transform="translate(757.93,0)" d="M0,100v509" style="stroke: rgb(255, 255, 255); stroke-opacity: 1; stroke-width: 1px;"/><path class="xgrid crisp" transform="translate(785.25,0)" d="M0,100v509" style="stroke: rgb(255, 255, 255); stroke-opacity: 1; stroke-width: 1px;"/><path class="xgrid crisp" transform="translate(812.58,0)" d="M0,100v509" style="stroke: rgb(255, 255, 255); stroke-opacity: 1; stroke-width: 1px;"/><path class="xgrid crisp" transform="translate(839.9,0)" d="M0,100v509" style="stroke: rgb(255, 255, 255); stroke-opacity: 1; stroke-width: 1px;"/><path class="xgrid crisp" transform="translate(867.23,0)" d="M0,100v509" style="stroke: rgb(255, 255, 255); stroke-opacity: 1; stroke-width: 1px;"/><path class="xgrid crisp" transform="translate(894.55,0)" d="M0,100v509" style="stroke: rgb(255, 255, 255); stroke-opacity: 1; stroke-width: 1px;"/></g><g class="y"><path class="ygrid crisp" transform="translate(0,548.36)" d="M80,0h864" style="stroke: rgb(255, 255, 255); stroke-opacity: 1; stroke-width: 1px;"/><path class="ygrid crisp" transform="translate(0,490.49)" d="M80,0h864" style="stroke: rgb(255, 255, 255); stroke-opacity: 1; stroke-width: 1px;"/><path class="ygrid crisp" transform="translate(0,432.62)" d="M80,0h864" style="stroke: rgb(255, 255, 255); stroke-opacity: 1; stroke-width: 1px;"/><path class="ygrid crisp" transform="translate(0,374.75)" d="M80,0h864" style="stroke: rgb(255, 255, 255); stroke-opacity: 1; stroke-width: 1px;"/><path class="ygrid crisp" transform="translate(0,316.88)" d="M80,0h864" style="stroke: rgb(255, 255, 255); stroke-opacity: 1; stroke-width: 1px;"/><path class="ygrid crisp" transform="translate(0,259.01)" d="M80,0h864" style="stroke: rgb(255, 255, 255); stroke-opacity: 1; stroke-width: 1px;"/><path class="ygrid crisp" transform="translate(0,201.14)" d="M80,0h864" style="stroke: rgb(255, 255, 255); stroke-opacity: 1; stroke-width: 1px;"/><path class="ygrid crisp" transform="translate(0,143.27)" d="M80,0h864" style="stroke: rgb(255, 255, 255); stroke-opacity: 1; stroke-width: 1px;"/></g></g><g class="zerolinelayer"><path class="yzl zl crisp" transform="translate(0,606.24)" d="M80,0h864" style="stroke: rgb(255, 255, 255); stroke-opacity: 1; stroke-width: 2px;"/></g><path class="xlines-below"/><path class="ylines-below"/><g class="overlines-below"/><g class="xaxislayer-below"/><g class="yaxislayer-below"/><g class="overaxes-below"/><g class="plot" transform="translate(80, 100)" clip-path="url('#clipe7d4ccxyplot')"><g class="scatterlayer mlayer"><g class="trace scatter trace605f9c" style="stroke-miterlimit: 2; opacity: 1;"><g class="fills"/><g class="errorbars"/><g class="lines"><path class="js-line" d="M49.45,31.7L76.78,135.87L104.1,182.16L131.43,286.33L158.75,286.33L186.08,297.9L213.4,321.05L240.73,332.62L268.05,338.41L295.38,384.71L322.7,396.28L350.03,396.28L377.35,419.43L404.67,425.22L432,425.22L459.33,436.79L486.65,442.58L513.98,442.58L541.3,448.36L568.63,448.36L595.95,454.15L650.6,465.73L677.93,465.73L705.25,471.51L732.58,471.51L759.9,477.3L787.23,477.3L814.55,477.3" style="vector-effect: non-scaling-stroke; fill: none; stroke: rgb(99, 110, 250); stroke-opacity: 1; stroke-width: 2px; opacity: 1;"/></g><g class="points"><path class="point" transform="translate(49.45,31.7)" d="M5,0A5,5 0 1,1 0,-5A5,5 0 0,1 5,0Z" style="opacity: 1; stroke-width: 0px; fill: rgb(29, 79, 96); fill-opacity: 1;"/><path class="point" transform="translate(76.78,135.87)" d="M5,0A5,5 0 1,1 0,-5A5,5 0 0,1 5,0Z" style="opacity: 1; stroke-width: 0px; fill: rgb(44, 118, 115); fill-opacity: 1;"/><path class="point" transform="translate(104.1,182.16)" d="M5,0A5,5 0 1,1 0,-5A5,5 0 0,1 5,0Z" style="opacity: 1; stroke-width: 0px; fill: rgb(55, 136, 122); fill-opacity: 1;"/><path class="point" transform="translate(131.43,286.33)" d="M5,0A5,5 0 1,1 0,-5A5,5 0 0,1 5,0Z" style="opacity: 1; stroke-width: 0px; fill: rgb(91, 173, 137); fill-opacity: 1;"/><path class="point" transform="translate(158.75,286.33)" d="M5,0A5,5 0 1,1 0,-5A5,5 0 0,1 5,0Z" style="opacity: 1; stroke-width: 0px; fill: rgb(91, 173, 137); fill-opacity: 1;"/><path class="point" transform="translate(186.08,297.9)" d="M5,0A5,5 0 1,1 0,-5A5,5 0 0,1 5,0Z" style="opacity: 1; stroke-width: 0px; fill: rgb(96, 177, 139); fill-opacity: 1;"/><path class="point" transform="translate(213.4,321.05)" d="M5,0A5,5 0 1,1 0,-5A5,5 0 0,1 5,0Z" style="opacity: 1; stroke-width: 0px; fill: rgb(106, 185, 143); fill-opacity: 1;"/><path class="point" transform="translate(240.73,332.62)" d="M5,0A5,5 0 1,1 0,-5A5,5 0 0,1 5,0Z" style="opacity: 1; stroke-width: 0px; fill: rgb(111, 189, 145); fill-opacity: 1;"/><path class="point" transform="translate(268.05,338.41)" d="M5,0A5,5 0 1,1 0,-5A5,5 0 0,1 5,0Z" style="opacity: 1; stroke-width: 0px; fill: rgb(114, 191, 147); fill-opacity: 1;"/><path class="point" transform="translate(295.38,384.71)" d="M5,0A5,5 0 1,1 0,-5A5,5 0 0,1 5,0Z" style="opacity: 1; stroke-width: 0px; fill: rgb(140, 205, 159); fill-opacity: 1;"/><path class="point" transform="translate(322.7,396.28)" d="M5,0A5,5 0 1,1 0,-5A5,5 0 0,1 5,0Z" style="opacity: 1; stroke-width: 0px; fill: rgb(146, 208, 162); fill-opacity: 1;"/><path class="point" transform="translate(350.03,396.28)" d="M5,0A5,5 0 1,1 0,-5A5,5 0 0,1 5,0Z" style="opacity: 1; stroke-width: 0px; fill: rgb(146, 208, 162); fill-opacity: 1;"/><path class="point" transform="translate(377.35,419.43)" d="M5,0A5,5 0 1,1 0,-5A5,5 0 0,1 5,0Z" style="opacity: 1; stroke-width: 0px; fill: rgb(160, 214, 171); fill-opacity: 1;"/><path class="point" transform="translate(404.67,425.22)" d="M5,0A5,5 0 1,1 0,-5A5,5 0 0,1 5,0Z" style="opacity: 1; stroke-width: 0px; fill: rgb(164, 216, 173); fill-opacity: 1;"/><path class="point" transform="translate(432,425.22)" d="M5,0A5,5 0 1,1 0,-5A5,5 0 0,1 5,0Z" style="opacity: 1; stroke-width: 0px; fill: rgb(164, 216, 173); fill-opacity: 1;"/><path class="point" transform="translate(459.33,436.79)" d="M5,0A5,5 0 1,1 0,-5A5,5 0 0,1 5,0Z" style="opacity: 1; stroke-width: 0px; fill: rgb(171, 219, 178); fill-opacity: 1;"/><path class="point" transform="translate(486.65,442.58)" d="M5,0A5,5 0 1,1 0,-5A5,5 0 0,1 5,0Z" style="opacity: 1; stroke-width: 0px; fill: rgb(174, 221, 181); fill-opacity: 1;"/><path class="point" transform="translate(513.98,442.58)" d="M5,0A5,5 0 1,1 0,-5A5,5 0 0,1 5,0Z" style="opacity: 1; stroke-width: 0px; fill: rgb(174, 221, 181); fill-opacity: 1;"/><path class="point" transform="translate(541.3,448.36)" d="M5,0A5,5 0 1,1 0,-5A5,5 0 0,1 5,0Z" style="opacity: 1; stroke-width: 0px; fill: rgb(178, 222, 183); fill-opacity: 1;"/><path class="point" transform="translate(568.63,448.36)" d="M5,0A5,5 0 1,1 0,-5A5,5 0 0,1 5,0Z" style="opacity: 1; stroke-width: 0px; fill: rgb(178, 222, 183); fill-opacity: 1;"/><path class="point" transform="translate(595.95,454.15)" d="M5,0A5,5 0 1,1 0,-5A5,5 0 0,1 5,0Z" style="opacity: 1; stroke-width: 0px; fill: rgb(182, 224, 185); fill-opacity: 1;"/><path class="point" transform="translate(623.28,459.94)" d="M5,0A5,5 0 1,1 0,-5A5,5 0 0,1 5,0Z" style="opacity: 1; stroke-width: 0px; fill: rgb(185, 225, 188); fill-opacity: 1;"/><path class="point" transform="translate(650.6,465.73)" d="M5,0A5,5 0 1,1 0,-5A5,5 0 0,1 5,0Z" style="opacity: 1; stroke-width: 0px; fill: rgb(189, 227, 190); fill-opacity: 1;"/><path class="point" transform="translate(677.93,465.73)" d="M5,0A5,5 0 1,1 0,-5A5,5 0 0,1 5,0Z" style="opacity: 1; stroke-width: 0px; fill: rgb(189, 227, 190); fill-opacity: 1;"/><path class="point" transform="translate(705.25,471.51)" d="M5,0A5,5 0 1,1 0,-5A5,5 0 0,1 5,0Z" style="opacity: 1; stroke-width: 0px; fill: rgb(192, 228, 193); fill-opacity: 1;"/><path class="point" transform="translate(732.58,471.51)" d="M5,0A5,5 0 1,1 0,-5A5,5 0 0,1 5,0Z" style="opacity: 1; stroke-width: 0px; fill: rgb(192, 228, 193); fill-opacity: 1;"/><path class="point" transform="translate(759.9,477.3)" d="M5,0A5,5 0 1,1 0,-5A5,5 0 0,1 5,0Z" style="opacity: 1; stroke-width: 0px; fill: rgb(196, 230, 195); fill-opacity: 1;"/><path class="point" transform="translate(787.23,477.3)" d="M5,0A5,5 0 1,1 0,-5A5,5 0 0,1 5,0Z" style="opacity: 1; stroke-width: 0px; fill: rgb(196, 230, 195); fill-opacity: 1;"/><path class="point" transform="translate(814.55,477.3)" d="M5,0A5,5 0 1,1 0,-5A5,5 0 0,1 5,0Z" style="opacity: 1; stroke-width: 0px; fill: rgb(196, 230, 195); fill-opacity: 1;"/></g><g class="text"><g class="textpoint" transform="translate(7.25,-10.25)"><text x="49.45" y="31.7" text-anchor="start" style="font-family: 'Open Sans', verdana, arial, sans-serif; font-size: 12px; fill: rgb(42, 63, 95); fill-opacity: 1; white-space: pre;">82%</text></g><g class="textpoint" transform="translate(7.25,-10.25)"><text x="76.78" y="135.87" text-anchor="start" style="font-family: 'Open Sans', verdana, arial, sans-serif; font-size: 12px; fill: rgb(42, 63, 95); fill-opacity: 1; white-space: pre;">64%</text></g><g class="textpoint" transform="translate(7.25,-10.25)"><text x="104.1" y="182.16" text-anchor="start" style="font-family: 'Open Sans', verdana, arial, sans-serif; font-size: 12px; fill: rgb(42, 63, 95); fill-opacity: 1; white-space: pre;">56%</text></g><g class="textpoint" transform="translate(7.25,-10.25)"><text x="131.43" y="286.33" text-anchor="start" style="font-family: 'Open Sans', verdana, arial, sans-serif; font-size: 12px; fill: rgb(42, 63, 95); fill-opacity: 1; white-space: pre;">38%</text></g><g class="textpoint" transform="translate(7.25,-10.25)"><text x="158.75" y="286.33" text-anchor="start" style="font-family: 'Open Sans', verdana, arial, sans-serif; font-size: 12px; fill: rgb(42, 63, 95); fill-opacity: 1; white-space: pre;">38%</text></g><g class="textpoint" transform="translate(7.25,-10.25)"><text x="186.08" y="297.9" text-anchor="start" style="font-family: 'Open Sans', verdana, arial, sans-serif; font-size: 12px; fill: rgb(42, 63, 95); fill-opacity: 1; white-space: pre;">36%</text></g><g class="textpoint" transform="translate(7.25,-10.25)"><text x="213.4" y="321.05" text-anchor="start" style="font-family: 'Open Sans', verdana, arial, sans-serif; font-size: 12px; fill: rgb(42, 63, 95); fill-opacity: 1; white-space: pre;">32%</text></g><g class="textpoint" transform="translate(7.25,-10.25)"><text x="240.73" y="332.62" text-anchor="start" style="font-family: 'Open Sans', verdana, arial, sans-serif; font-size: 12px; fill: rgb(42, 63, 95); fill-opacity: 1; white-space: pre;">30%</text></g><g class="textpoint" transform="translate(7.25,-10.25)"><text x="268.05" y="338.41" text-anchor="start" style="font-family: 'Open Sans', verdana, arial, sans-serif; font-size: 12px; fill: rgb(42, 63, 95); fill-opacity: 1; white-space: pre;">29%</text></g><g class="textpoint" transform="translate(7.25,-10.25)"><text x="295.38" y="384.71" text-anchor="start" style="font-family: 'Open Sans', verdana, arial, sans-serif; font-size: 12px; fill: rgb(42, 63, 95); fill-opacity: 1; white-space: pre;">21%</text></g><g class="textpoint" transform="translate(7.25,-10.25)"><text x="322.7" y="396.28" text-anchor="start" style="font-family: 'Open Sans', verdana, arial, sans-serif; font-size: 12px; fill: rgb(42, 63, 95); fill-opacity: 1; white-space: pre;">19%</text></g><g class="textpoint" transform="translate(7.25,-10.25)"><text x="350.03" y="396.28" text-anchor="start" style="font-family: 'Open Sans', verdana, arial, sans-serif; font-size: 12px; fill: rgb(42, 63, 95); fill-opacity: 1; white-space: pre;">19%</text></g><g class="textpoint" transform="translate(7.25,-10.25)"><text x="377.35" y="419.43" text-anchor="start" style="font-family: 'Open Sans', verdana, arial, sans-serif; font-size: 12px; fill: rgb(42, 63, 95); fill-opacity: 1; white-space: pre;">15%</text></g><g class="textpoint" transform="translate(7.25,-10.25)"><text x="404.67" y="425.22" text-anchor="start" style="font-family: 'Open Sans', verdana, arial, sans-serif; font-size: 12px; fill: rgb(42, 63, 95); fill-opacity: 1; white-space: pre;">14%</text></g><g class="textpoint" transform="translate(7.25,-10.25)"><text x="432" y="425.22" text-anchor="start" style="font-family: 'Open Sans', verdana, arial, sans-serif; font-size: 12px; fill: rgb(42, 63, 95); fill-opacity: 1; white-space: pre;">14%</text></g><g class="textpoint" transform="translate(7.25,-10.25)"><text x="459.33" y="436.79" text-anchor="start" style="font-family: 'Open Sans', verdana, arial, sans-serif; font-size: 12px; fill: rgb(42, 63, 95); fill-opacity: 1; white-space: pre;">12%</text></g><g class="textpoint" transform="translate(7.25,-10.25)"><text x="486.65" y="442.58" text-anchor="start" style="font-family: 'Open Sans', verdana, arial, sans-serif; font-size: 12px; fill: rgb(42, 63, 95); fill-opacity: 1; white-space: pre;">11%</text></g><g class="textpoint" transform="translate(7.25,-10.25)"><text x="513.98" y="442.58" text-anchor="start" style="font-family: 'Open Sans', verdana, arial, sans-serif; font-size: 12px; fill: rgb(42, 63, 95); fill-opacity: 1; white-space: pre;">11%</text></g><g class="textpoint" transform="translate(7.25,-10.25)"><text x="541.3" y="448.36" text-anchor="start" style="font-family: 'Open Sans', verdana, arial, sans-serif; font-size: 12px; fill: rgb(42, 63, 95); fill-opacity: 1; white-space: pre;">10%</text></g><g class="textpoint" transform="translate(7.25,-10.25)"><text x="568.63" y="448.36" text-anchor="start" style="font-family: 'Open Sans', verdana, arial, sans-serif; font-size: 12px; fill: rgb(42, 63, 95); fill-opacity: 1; white-space: pre;">10%</text></g><g class="textpoint" transform="translate(7.25,-10.25)"><text x="595.95" y="454.15" text-anchor="start" style="font-family: 'Open Sans', verdana, arial, sans-serif; font-size: 12px; fill: rgb(42, 63, 95); fill-opacity: 1; white-space: pre;">9%</text></g><g class="textpoint" transform="translate(7.25,-10.25)"><text x="623.28" y="459.94" text-anchor="start" style="font-family: 'Open Sans', verdana, arial, sans-serif; font-size: 12px; fill: rgb(42, 63, 95); fill-opacity: 1; white-space: pre;">8%</text></g><g class="textpoint" transform="translate(7.25,-10.25)"><text x="650.6" y="465.73" text-anchor="start" style="font-family: 'Open Sans', verdana, arial, sans-serif; font-size: 12px; fill: rgb(42, 63, 95); fill-opacity: 1; white-space: pre;">7%</text></g><g class="textpoint" transform="translate(7.25,-10.25)"><text x="677.93" y="465.73" text-anchor="start" style="font-family: 'Open Sans', verdana, arial, sans-serif; font-size: 12px; fill: rgb(42, 63, 95); fill-opacity: 1; white-space: pre;">7%</text></g><g class="textpoint" transform="translate(7.25,-10.25)"><text x="705.25" y="471.51" text-anchor="start" style="font-family: 'Open Sans', verdana, arial, sans-serif; font-size: 12px; fill: rgb(42, 63, 95); fill-opacity: 1; white-space: pre;">6%</text></g><g class="textpoint" transform="translate(7.25,-10.25)"><text x="732.58" y="471.51" text-anchor="start" style="font-family: 'Open Sans', verdana, arial, sans-serif; font-size: 12px; fill: rgb(42, 63, 95); fill-opacity: 1; white-space: pre;">6%</text></g><g class="textpoint" transform="translate(7.25,-10.25)"><text x="759.9" y="477.3" text-anchor="start" style="font-family: 'Open Sans', verdana, arial, sans-serif; font-size: 12px; fill: rgb(42, 63, 95); fill-opacity: 1; white-space: pre;">5%</text></g><g class="textpoint" transform="translate(7.25,-10.25)"><text x="787.23" y="477.3" text-anchor="start" style="font-family: 'Open Sans', verdana, arial, sans-serif; font-size: 12px; fill: rgb(42, 63, 95); fill-opacity: 1; white-space: pre;">5%</text></g><g class="textpoint" transform="translate(7.25,-10.25)"><text x="814.55" y="477.3" text-anchor="start" style="font-family: 'Open Sans', verdana, arial, sans-serif; font-size: 12px; fill: rgb(42, 63, 95); fill-opacity: 1; white-space: pre;">5%</text></g></g></g></g></g><g class="overplot"/><path class="xlines-above crisp" d="M79,609.5H944" style="fill: none; stroke-width: 1px; stroke: rgb(255, 255, 255); stroke-opacity: 1;"/><path class="ylines-above crisp" d="M79.5,100V609" style="fill: none; stroke-width: 1px; stroke: rgb(255, 255, 255); stroke-opacity: 1;"/><g class="overlines-above"/><g class="xaxislayer-above"><g class="xtick"><text text-anchor="start" x="0" y="624.4" transform="translate(129.45,0) rotate(90,0,618.4)" style="font-family: 'Open Sans', verdana, arial, sans-serif; font-size: 12px; fill: rgb(42, 63, 95); fill-opacity: 1; white-space: pre;">explosion</text></g><g class="xtick"><text text-anchor="start" x="0" y="624.4" transform="translate(156.78,0) rotate(90,0,618.4)" style="font-family: 'Open Sans', verdana, arial, sans-serif; font-size: 12px; fill: rgb(42, 63, 95); fill-opacity: 1; white-space: pre;">keras-team</text></g><g class="xtick"><text text-anchor="start" x="0" y="624.4" transform="translate(184.1,0) rotate(90,0,618.4)" style="font-family: 'Open Sans', verdana, arial, sans-serif; font-size: 12px; fill: rgb(42, 63, 95); fill-opacity: 1; white-space: pre;">huggingface</text></g><g class="xtick"><text text-anchor="start" x="0" y="624.4" transform="translate(211.43,0) rotate(90,0,618.4)" style="font-family: 'Open Sans', verdana, arial, sans-serif; font-size: 12px; fill: rgb(42, 63, 95); fill-opacity: 1; white-space: pre;">deepmind</text></g><g class="xtick"><text text-anchor="start" x="0" y="624.4" transform="translate(238.75,0) rotate(90,0,618.4)" style="font-family: 'Open Sans', verdana, arial, sans-serif; font-size: 12px; fill: rgb(42, 63, 95); fill-opacity: 1; white-space: pre;">google-research</text></g><g class="xtick"><text text-anchor="start" x="0" y="624.4" transform="translate(266.08000000000004,0) rotate(90,0,618.4)" style="font-family: 'Open Sans', verdana, arial, sans-serif; font-size: 12px; fill: rgb(42, 63, 95); fill-opacity: 1; white-space: pre;">tensorflow</text></g><g class="xtick"><text text-anchor="start" x="0" y="624.4" transform="translate(293.4,0) rotate(90,0,618.4)" style="font-family: 'Open Sans', verdana, arial, sans-serif; font-size: 12px; fill: rgb(42, 63, 95); fill-opacity: 1; white-space: pre;">dmlc</text></g><g class="xtick"><text text-anchor="start" x="0" y="624.4" transform="translate(320.73,0) rotate(90,0,618.4)" style="font-family: 'Open Sans', verdana, arial, sans-serif; font-size: 12px; fill: rgb(42, 63, 95); fill-opacity: 1; white-space: pre;">stanfordnlp</text></g><g class="xtick"><text text-anchor="start" x="0" y="624.4" transform="translate(348.05,0) rotate(90,0,618.4)" style="font-family: 'Open Sans', verdana, arial, sans-serif; font-size: 12px; fill: rgb(42, 63, 95); fill-opacity: 1; white-space: pre;">pytorch</text></g><g class="xtick"><text text-anchor="start" x="0" y="624.4" transform="translate(375.38,0) rotate(90,0,618.4)" style="font-family: 'Open Sans', verdana, arial, sans-serif; font-size: 12px; fill: rgb(42, 63, 95); fill-opacity: 1; white-space: pre;">RaRe-Technologies</text></g><g class="xtick"><text text-anchor="start" x="0" y="624.4" transform="translate(402.7,0) rotate(90,0,618.4)" style="font-family: 'Open Sans', verdana, arial, sans-serif; font-size: 12px; fill: rgb(42, 63, 95); fill-opacity: 1; white-space: pre;">baidu-research</text></g><g class="xtick"><text text-anchor="start" x="0" y="624.4" transform="translate(430.03,0) rotate(90,0,618.4)" style="font-family: 'Open Sans', verdana, arial, sans-serif; font-size: 12px; fill: rgb(42, 63, 95); fill-opacity: 1; white-space: pre;">openai</text></g><g class="xtick"><text text-anchor="start" x="0" y="624.4" transform="translate(457.35,0) rotate(90,0,618.4)" style="font-family: 'Open Sans', verdana, arial, sans-serif; font-size: 12px; fill: rgb(42, 63, 95); fill-opacity: 1; white-space: pre;">IBM</text></g><g class="xtick"><text text-anchor="start" x="0" y="624.4" transform="translate(484.67,0) rotate(90,0,618.4)" style="font-family: 'Open Sans', verdana, arial, sans-serif; font-size: 12px; fill: rgb(42, 63, 95); fill-opacity: 1; white-space: pre;">fastai</text></g><g class="xtick"><text text-anchor="start" x="0" y="624.4" transform="translate(512,0) rotate(90,0,618.4)" style="font-family: 'Open Sans', verdana, arial, sans-serif; font-size: 12px; fill: rgb(42, 63, 95); fill-opacity: 1; white-space: pre;">allenai</text></g><g class="xtick"><text text-anchor="start" x="0" y="624.4" transform="translate(539.3299999999999,0) rotate(90,0,618.4)" style="font-family: 'Open Sans', verdana, arial, sans-serif; font-size: 12px; fill: rgb(42, 63, 95); fill-opacity: 1; white-space: pre;">h2oai</text></g><g class="xtick"><text text-anchor="start" x="0" y="624.4" transform="translate(566.65,0) rotate(90,0,618.4)" style="font-family: 'Open Sans', verdana, arial, sans-serif; font-size: 12px; fill: rgb(42, 63, 95); fill-opacity: 1; white-space: pre;">uber</text></g><g class="xtick"><text text-anchor="start" x="0" y="624.4" transform="translate(593.98,0) rotate(90,0,618.4)" style="font-family: 'Open Sans', verdana, arial, sans-serif; font-size: 12px; fill: rgb(42, 63, 95); fill-opacity: 1; white-space: pre;">salesforce</text></g><g class="xtick"><text text-anchor="start" x="0" y="624.4" transform="translate(621.3,0) rotate(90,0,618.4)" style="font-family: 'Open Sans', verdana, arial, sans-serif; font-size: 12px; fill: rgb(42, 63, 95); fill-opacity: 1; white-space: pre;">baidu</text></g><g class="xtick"><text text-anchor="start" x="0" y="624.4" transform="translate(648.63,0) rotate(90,0,618.4)" style="font-family: 'Open Sans', verdana, arial, sans-serif; font-size: 12px; fill: rgb(42, 63, 95); fill-opacity: 1; white-space: pre;">intuit</text></g><g class="xtick"><text text-anchor="start" x="0" y="624.4" transform="translate(675.95,0) rotate(90,0,618.4)" style="font-family: 'Open Sans', verdana, arial, sans-serif; font-size: 12px; fill: rgb(42, 63, 95); fill-opacity: 1; white-space: pre;">amzn</text></g><g class="xtick"><text text-anchor="start" x="0" y="624.4" transform="translate(703.28,0) rotate(90,0,618.4)" style="font-family: 'Open Sans', verdana, arial, sans-serif; font-size: 12px; fill: rgb(42, 63, 95); fill-opacity: 1; white-space: pre;">eBay</text></g><g class="xtick"><text text-anchor="start" x="0" y="624.4" transform="translate(730.6,0) rotate(90,0,618.4)" style="font-family: 'Open Sans', verdana, arial, sans-serif; font-size: 12px; fill: rgb(42, 63, 95); fill-opacity: 1; white-space: pre;">microsoft</text></g><g class="xtick"><text text-anchor="start" x="0" y="624.4" transform="translate(757.93,0) rotate(90,0,618.4)" style="font-family: 'Open Sans', verdana, arial, sans-serif; font-size: 12px; fill: rgb(42, 63, 95); fill-opacity: 1; white-space: pre;">spotify</text></g><g class="xtick"><text text-anchor="start" x="0" y="624.4" transform="translate(785.25,0) rotate(90,0,618.4)" style="font-family: 'Open Sans', verdana, arial, sans-serif; font-size: 12px; fill: rgb(42, 63, 95); fill-opacity: 1; white-space: pre;">oracle</text></g><g class="xtick"><text text-anchor="start" x="0" y="624.4" transform="translate(812.58,0) rotate(90,0,618.4)" style="font-family: 'Open Sans', verdana, arial, sans-serif; font-size: 12px; fill: rgb(42, 63, 95); fill-opacity: 1; white-space: pre;">twitter</text></g><g class="xtick"><text text-anchor="start" x="0" y="624.4" transform="translate(839.9,0) rotate(90,0,618.4)" style="font-family: 'Open Sans', verdana, arial, sans-serif; font-size: 12px; fill: rgb(42, 63, 95); fill-opacity: 1; white-space: pre;">google</text></g><g class="xtick"><text text-anchor="start" x="0" y="624.4" transform="translate(867.23,0) rotate(90,0,618.4)" style="font-family: 'Open Sans', verdana, arial, sans-serif; font-size: 12px; fill: rgb(42, 63, 95); fill-opacity: 1; white-space: pre;">fizyr</text></g><g class="xtick"><text text-anchor="start" x="0" y="624.4" transform="translate(894.55,0) rotate(90,0,618.4)" style="font-family: 'Open Sans', verdana, arial, sans-serif; font-size: 12px; fill: rgb(42, 63, 95); fill-opacity: 1; white-space: pre;">Netflix</text></g></g><g class="yaxislayer-above"><g class="ytick"><text text-anchor="end" x="76.6" y="4.199999999999999" transform="translate(0,606.24)" style="font-family: 'Open Sans', verdana, arial, sans-serif; font-size: 12px; fill: rgb(42, 63, 95); fill-opacity: 1; white-space: pre;">0</text></g><g class="ytick"><text text-anchor="end" x="76.6" y="4.199999999999999" transform="translate(0,548.36)" style="font-family: 'Open Sans', verdana, arial, sans-serif; font-size: 12px; fill: rgb(42, 63, 95); fill-opacity: 1; white-space: pre;">10</text></g><g class="ytick"><text text-anchor="end" x="76.6" y="4.199999999999999" transform="translate(0,490.49)" style="font-family: 'Open Sans', verdana, arial, sans-serif; font-size: 12px; fill: rgb(42, 63, 95); fill-opacity: 1; white-space: pre;">20</text></g><g class="ytick"><text text-anchor="end" x="76.6" y="4.199999999999999" transform="translate(0,432.62)" style="font-family: 'Open Sans', verdana, arial, sans-serif; font-size: 12px; fill: rgb(42, 63, 95); fill-opacity: 1; white-space: pre;">30</text></g><g class="ytick"><text text-anchor="end" x="76.6" y="4.199999999999999" transform="translate(0,374.75)" style="font-family: 'Open Sans', verdana, arial, sans-serif; font-size: 12px; fill: rgb(42, 63, 95); fill-opacity: 1; white-space: pre;">40</text></g><g class="ytick"><text text-anchor="end" x="76.6" y="4.199999999999999" transform="translate(0,316.88)" style="font-family: 'Open Sans', verdana, arial, sans-serif; font-size: 12px; fill: rgb(42, 63, 95); fill-opacity: 1; white-space: pre;">50</text></g><g class="ytick"><text text-anchor="end" x="76.6" y="4.199999999999999" transform="translate(0,259.01)" style="font-family: 'Open Sans', verdana, arial, sans-serif; font-size: 12px; fill: rgb(42, 63, 95); fill-opacity: 1; white-space: pre;">60</text></g><g class="ytick"><text text-anchor="end" x="76.6" y="4.199999999999999" transform="translate(0,201.14)" style="font-family: 'Open Sans', verdana, arial, sans-serif; font-size: 12px; fill: rgb(42, 63, 95); fill-opacity: 1; white-space: pre;">70</text></g><g class="ytick"><text text-anchor="end" x="76.6" y="4.199999999999999" transform="translate(0,143.27)" style="font-family: 'Open Sans', verdana, arial, sans-serif; font-size: 12px; fill: rgb(42, 63, 95); fill-opacity: 1; white-space: pre;">80</text></g></g><g class="overaxes-above"/></g></g><g class="polarlayer"/><g class="ternarylayer"/><g class="geolayer"/><g class="funnelarealayer"/><g class="pielayer"/><g class="treemaplayer"/><g class="sunburstlayer"/><g class="glimages"/><defs id="topdefs-e7d4cc"><g class="clips"/></defs><g class="layer-above"><g class="imagelayer"/><g class="shapelayer"/></g><g class="infolayer"><g class="g-gtitle"><text class="gtitle" x="51.2" y="50" text-anchor="start" dy="0em" style="font-family: 'Open Sans', verdana, arial, sans-serif; font-size: 17px; fill: rgb(42, 63, 95); opacity: 1; font-weight: normal; white-space: pre;">Portion of Data Science / Machine Learning tools over all repos</text></g><g class="g-xtitle"><text class="xtitle" x="512" y="755.762890625" text-anchor="middle" style="font-family: 'Open Sans', verdana, arial, sans-serif; font-size: 14px; fill: rgb(42, 63, 95); opacity: 1; font-weight: normal; white-space: pre;">Organizations</text></g><g class="g-ytitle"><text class="ytitle" transform="rotate(-90,35.528125,354.5)" x="35.528125" y="354.5" text-anchor="middle" style="font-family: 'Open Sans', verdana, arial, sans-serif; font-size: 14px; fill: rgb(42, 63, 95); opacity: 1; font-weight: normal; white-space: pre;">Percentage value</text></g></g></svg>