<svg class="main-svg" xmlns="http://www.w3.org/2000/svg" xmlns:xlink="http://www.w3.org/1999/xlink" width="700" height="500" style="" viewBox="0 0 700 500"><rect x="0" y="0" width="700" height="500" style="fill: rgb(255, 255, 255); fill-opacity: 1;"/><defs id="defs-c74c16"><g class="clips"><clipPath id="clipc74c16xyplot" class="plotclip"><rect width="540" height="241"/></clipPath><clipPath class="axesclip" id="clipc74c16x"><rect x="80" y="0" width="540" height="500"/></clipPath><clipPath class="axesclip" id="clipc74c16y"><rect x="0" y="100" width="700" height="241"/></clipPath><clipPath class="axesclip" id="clipc74c16xy"><rect x="80" y="100" width="540" height="241"/></clipPath></g><g class="gradients"/></defs><g class="bglayer"><rect class="bg" x="80" y="100" width="540" height="241" style="fill: rgb(229, 236, 246); fill-opacity: 1; stroke-width: 0;"/></g><g class="layer-below"><g class="imagelayer"/><g class="shapelayer"/></g><g class="cartesianlayer"><g class="subplot xy"><g class="layer-subplot"><g class="shapelayer"/><g class="imagelayer"/></g><g class="gridlayer"><g class="x"><path class="xgrid crisp" transform="translate(113.25,0)" d="M0,100v241" style="stroke: rgb(255, 255, 255); stroke-opacity: 1; stroke-width: 1px;"/><path class="xgrid crisp" transform="translate(130.16,0)" d="M0,100v241" style="stroke: rgb(255, 255, 255); stroke-opacity: 1; stroke-width: 1px;"/><path class="xgrid crisp" transform="translate(147.07,0)" d="M0,100v241" style="stroke: rgb(255, 255, 255); stroke-opacity: 1; stroke-width: 1px;"/><path class="xgrid crisp" transform="translate(163.98000000000002,0)" d="M0,100v241" style="stroke: rgb(255, 255, 255); stroke-opacity: 1; stroke-width: 1px;"/><path class="xgrid crisp" transform="translate(180.89,0)" d="M0,100v241" style="stroke: rgb(255, 255, 255); stroke-opacity: 1; stroke-width: 1px;"/><path class="xgrid crisp" transform="translate(197.8,0)" d="M0,100v241" style="stroke: rgb(255, 255, 255); stroke-opacity: 1; stroke-width: 1px;"/><path class="xgrid crisp" transform="translate(214.71,0)" d="M0,100v241" style="stroke: rgb(255, 255, 255); stroke-opacity: 1; stroke-width: 1px;"/><path class="xgrid crisp" transform="translate(231.63,0)" d="M0,100v241" style="stroke: rgb(255, 255, 255); stroke-opacity: 1; stroke-width: 1px;"/><path class="xgrid crisp" transform="translate(248.54,0)" d="M0,100v241" style="stroke: rgb(255, 255, 255); stroke-opacity: 1; stroke-width: 1px;"/><path class="xgrid crisp" transform="translate(265.45,0)" d="M0,100v241" style="stroke: rgb(255, 255, 255); stroke-opacity: 1; stroke-width: 1px;"/><path class="xgrid crisp" transform="translate(282.36,0)" d="M0,100v241" style="stroke: rgb(255, 255, 255); stroke-opacity: 1; stroke-width: 1px;"/><path class="xgrid crisp" transform="translate(299.27,0)" d="M0,100v241" style="stroke: rgb(255, 255, 255); stroke-opacity: 1; stroke-width: 1px;"/><path class="xgrid crisp" transform="translate(316.18,0)" d="M0,100v241" style="stroke: rgb(255, 255, 255); stroke-opacity: 1; stroke-width: 1px;"/><path class="xgrid crisp" transform="translate(333.09000000000003,0)" d="M0,100v241" style="stroke: rgb(255, 255, 255); stroke-opacity: 1; stroke-width: 1px;"/><path class="xgrid crisp" transform="translate(350,0)" d="M0,100v241" style="stroke: rgb(255, 255, 255); stroke-opacity: 1; stroke-width: 1px;"/><path class="xgrid crisp" transform="translate(366.91,0)" d="M0,100v241" style="stroke: rgb(255, 255, 255); stroke-opacity: 1; stroke-width: 1px;"/><path class="xgrid crisp" transform="translate(383.82,0)" d="M0,100v241" style="stroke: rgb(255, 255, 255); stroke-opacity: 1; stroke-width: 1px;"/><path class="xgrid crisp" transform="translate(400.73,0)" d="M0,100v241" style="stroke: rgb(255, 255, 255); stroke-opacity: 1; stroke-width: 1px;"/><path class="xgrid crisp" transform="translate(417.64,0)" d="M0,100v241" style="stroke: rgb(255, 255, 255); stroke-opacity: 1; stroke-width: 1px;"/><path class="xgrid crisp" transform="translate(434.55,0)" d="M0,100v241" style="stroke: rgb(255, 255, 255); stroke-opacity: 1; stroke-width: 1px;"/><path class="xgrid crisp" transform="translate(451.46,0)" d="M0,100v241" style="stroke: rgb(255, 255, 255); stroke-opacity: 1; stroke-width: 1px;"/><path class="xgrid crisp" transform="translate(468.38,0)" d="M0,100v241" style="stroke: rgb(255, 255, 255); stroke-opacity: 1; stroke-width: 1px;"/><path class="xgrid crisp" transform="translate(485.29,0)" d="M0,100v241" style="stroke: rgb(255, 255, 255); stroke-opacity: 1; stroke-width: 1px;"/><path class="xgrid crisp" transform="translate(502.2,0)" d="M0,100v241" style="stroke: rgb(255, 255, 255); stroke-opacity: 1; stroke-width: 1px;"/><path class="xgrid crisp" transform="translate(519.11,0)" d="M0,100v241" style="stroke: rgb(255, 255, 255); stroke-opacity: 1; stroke-width: 1px;"/><path class="xgrid crisp" transform="translate(536.02,0)" d="M0,100v241" style="stroke: rgb(255, 255, 255); stroke-opacity: 1; stroke-width: 1px;"/><path class="xgrid crisp" transform="translate(552.9300000000001,0)" d="M0,100v241" style="stroke: rgb(255, 255, 255); stroke-opacity: 1; stroke-width: 1px;"/><path class="xgrid crisp" transform="translate(569.8399999999999,0)" d="M0,100v241" style="stroke: rgb(255, 255, 255); stroke-opacity: 1; stroke-width: 1px;"/><path class="xgrid crisp" transform="translate(586.75,0)" d="M0,100v241" style="stroke: rgb(255, 255, 255); stroke-opacity: 1; stroke-width: 1px;"/></g><g class="y"><path class="ygrid crisp" transform="translate(0,282.88)" d="M80,0h540" style="stroke: rgb(255, 255, 255); stroke-opacity: 1; stroke-width: 1px;"/><path class="ygrid crisp" transform="translate(0,229.79)" d="M80,0h540" style="stroke: rgb(255, 255, 255); stroke-opacity: 1; stroke-width: 1px;"/><path class="ygrid crisp" transform="translate(0,176.7)" d="M80,0h540" style="stroke: rgb(255, 255, 255); stroke-opacity: 1; stroke-width: 1px;"/><path class="ygrid crisp" transform="translate(0,123.61)" d="M80,0h540" style="stroke: rgb(255, 255, 255); stroke-opacity: 1; stroke-width: 1px;"/></g></g><g class="zerolinelayer"><path class="yzl zl crisp" transform="translate(0,335.97)" d="M80,0h540" style="stroke: rgb(255, 255, 255); stroke-opacity: 1; stroke-width: 2px;"/></g><path class="xlines-below"/><path class="ylines-below"/><g class="overlines-below"/><g class="xaxislayer-below"/><g class="yaxislayer-below"/><g class="overaxes-below"/><g class="plot" transform="translate(80, 100)" clip-path="url('#clipc74c16xyplot')"><g class="scatterlayer mlayer"><g class="trace scatter tracee35421" style="stroke-miterlimit: 2; opacity: 1;"><g class="fills"/><g class="errorbars"/><g class="lines"><path class="js-line" d="M33.25,18.3L50.16,66.08L67.07,87.32L83.98,135.1L100.89,135.1L117.8,140.41L134.71,151.03L151.63,156.34L168.54,158.99L185.45,180.23L202.36,185.54L219.27,185.54L236.18,196.15L253.09,198.81L270,198.81L286.91,204.12L303.82,206.77L320.73,206.77L337.64,209.43L354.55,209.43L371.46,212.08L405.29,217.39L422.2,217.39L439.11,220.05L456.02,220.05L472.93,222.7L489.84,222.7L506.75,222.7" style="vector-effect: non-scaling-stroke; fill: none; stroke: rgb(99, 110, 250); stroke-opacity: 1; stroke-width: 2px; opacity: 1;"/></g><g class="points"><path class="point" transform="translate(33.25,18.3)" d="M5,0A5,5 0 1,1 0,-5A5,5 0 0,1 5,0Z" style="opacity: 1; stroke-width: 0px; fill: rgb(29, 79, 96); fill-opacity: 1;"/><path class="point" transform="translate(50.16,66.08)" d="M5,0A5,5 0 1,1 0,-5A5,5 0 0,1 5,0Z" style="opacity: 1; stroke-width: 0px; fill: rgb(44, 118, 115); fill-opacity: 1;"/><path class="point" transform="translate(67.07,87.32)" d="M5,0A5,5 0 1,1 0,-5A5,5 0 0,1 5,0Z" style="opacity: 1; stroke-width: 0px; fill: rgb(55, 136, 122); fill-opacity: 1;"/><path class="point" transform="translate(83.98,135.1)" d="M5,0A5,5 0 1,1 0,-5A5,5 0 0,1 5,0Z" style="opacity: 1; stroke-width: 0px; fill: rgb(91, 173, 137); fill-opacity: 1;"/><path class="point" transform="translate(100.89,135.1)" d="M5,0A5,5 0 1,1 0,-5A5,5 0 0,1 5,0Z" style="opacity: 1; stroke-width: 0px; fill: rgb(91, 173, 137); fill-opacity: 1;"/><path class="point" transform="translate(117.8,140.41)" d="M5,0A5,5 0 1,1 0,-5A5,5 0 0,1 5,0Z" style="opacity: 1; stroke-width: 0px; fill: rgb(96, 177, 139); fill-opacity: 1;"/><path class="point" transform="translate(134.71,151.03)" d="M5,0A5,5 0 1,1 0,-5A5,5 0 0,1 5,0Z" style="opacity: 1; stroke-width: 0px; fill: rgb(106, 185, 143); fill-opacity: 1;"/><path class="point" transform="translate(151.63,156.34)" d="M5,0A5,5 0 1,1 0,-5A5,5 0 0,1 5,0Z" style="opacity: 1; stroke-width: 0px; fill: rgb(111, 189, 145); fill-opacity: 1;"/><path class="point" transform="translate(168.54,158.99)" d="M5,0A5,5 0 1,1 0,-5A5,5 0 0,1 5,0Z" style="opacity: 1; stroke-width: 0px; fill: rgb(114, 191, 147); fill-opacity: 1;"/><path class="point" transform="translate(185.45,180.23)" d="M5,0A5,5 0 1,1 0,-5A5,5 0 0,1 5,0Z" style="opacity: 1; stroke-width: 0px; fill: rgb(140, 205, 159); fill-opacity: 1;"/><path class="point" transform="translate(202.36,185.54)" d="M5,0A5,5 0 1,1 0,-5A5,5 0 0,1 5,0Z" style="opacity: 1; stroke-width: 0px; fill: rgb(146, 208, 162); fill-opacity: 1;"/><path class="point" transform="translate(219.27,185.54)" d="M5,0A5,5 0 1,1 0,-5A5,5 0 0,1 5,0Z" style="opacity: 1; stroke-width: 0px; fill: rgb(146, 208, 162); fill-opacity: 1;"/><path class="point" transform="translate(236.18,196.15)" d="M5,0A5,5 0 1,1 0,-5A5,5 0 0,1 5,0Z" style="opacity: 1; stroke-width: 0px; fill: rgb(160, 214, 171); fill-opacity: 1;"/><path class="point" transform="translate(253.09,198.81)" d="M5,0A5,5 0 1,1 0,-5A5,5 0 0,1 5,0Z" style="opacity: 1; stroke-width: 0px; fill: rgb(164, 216, 173); fill-opacity: 1;"/><path class="point" transform="translate(270,198.81)" d="M5,0A5,5 0 1,1 0,-5A5,5 0 0,1 5,0Z" style="opacity: 1; stroke-width: 0px; fill: rgb(164, 216, 173); fill-opacity: 1;"/><path class="point" transform="translate(286.91,204.12)" d="M5,0A5,5 0 1,1 0,-5A5,5 0 0,1 5,0Z" style="opacity: 1; stroke-width: 0px; fill: rgb(171, 219, 178); fill-opacity: 1;"/><path class="point" transform="translate(303.82,206.77)" d="M5,0A5,5 0 1,1 0,-5A5,5 0 0,1 5,0Z" style="opacity: 1; stroke-width: 0px; fill: rgb(174, 221, 181); fill-opacity: 1;"/><path class="point" transform="translate(320.73,206.77)" d="M5,0A5,5 0 1,1 0,-5A5,5 0 0,1 5,0Z" style="opacity: 1; stroke-width: 0px; fill: rgb(174, 221, 181); fill-opacity: 1;"/><path class="point" transform="translate(337.64,209.43)" d="M5,0A5,5 0 1,1 0,-5A5,5 0 0,1 5,0Z" style="opacity: 1; stroke-width: 0px; fill: rgb(178, 222, 183); fill-opacity: 1;"/><path class="point" transform="translate(354.55,209.43)" d="M5,0A5,5 0 1,1 0,-5A5,5 0 0,1 5,0Z" style="opacity: 1; stroke-width: 0px; fill: rgb(178, 222, 183); fill-opacity: 1;"/><path class="point" transform="translate(371.46,212.08)" d="M5,0A5,5 0 1,1 0,-5A5,5 0 0,1 5,0Z" style="opacity: 1; stroke-width: 0px; fill: rgb(182, 224, 185); fill-opacity: 1;"/><path class="point" transform="translate(388.38,214.74)" d="M5,0A5,5 0 1,1 0,-5A5,5 0 0,1 5,0Z" style="opacity: 1; stroke-width: 0px; fill: rgb(185, 225, 188); fill-opacity: 1;"/><path class="point" transform="translate(405.29,217.39)" d="M5,0A5,5 0 1,1 0,-5A5,5 0 0,1 5,0Z" style="opacity: 1; stroke-width: 0px; fill: rgb(189, 227, 190); fill-opacity: 1;"/><path class="point" transform="translate(422.2,217.39)" d="M5,0A5,5 0 1,1 0,-5A5,5 0 0,1 5,0Z" style="opacity: 1; stroke-width: 0px; fill: rgb(189, 227, 190); fill-opacity: 1;"/><path class="point" transform="translate(439.11,220.05)" d="M5,0A5,5 0 1,1 0,-5A5,5 0 0,1 5,0Z" style="opacity: 1; stroke-width: 0px; fill: rgb(192, 228, 193); fill-opacity: 1;"/><path class="point" transform="translate(456.02,220.05)" d="M5,0A5,5 0 1,1 0,-5A5,5 0 0,1 5,0Z" style="opacity: 1; stroke-width: 0px; fill: rgb(192, 228, 193); fill-opacity: 1;"/><path class="point" transform="translate(472.93,222.7)" d="M5,0A5,5 0 1,1 0,-5A5,5 0 0,1 5,0Z" style="opacity: 1; stroke-width: 0px; fill: rgb(196, 230, 195); fill-opacity: 1;"/><path class="point" transform="translate(489.84,222.7)" d="M5,0A5,5 0 1,1 0,-5A5,5 0 0,1 5,0Z" style="opacity: 1; stroke-width: 0px; fill: rgb(196, 230, 195); fill-opacity: 1;"/><path class="point" transform="translate(506.75,222.7)" d="M5,0A5,5 0 1,1 0,-5A5,5 0 0,1 5,0Z" style="opacity: 1; stroke-width: 0px; fill: rgb(196, 230, 195); fill-opacity: 1;"/></g><g class="text"><g class="textpoint" transform="translate(7.25,-10.25)"><text x="33.25" y="18.3" text-anchor="start" style="font-family: 'Open Sans', verdana, arial, sans-serif; font-size: 12px; fill: rgb(42, 63, 95); fill-opacity: 1; white-space: pre;">82%</text></g><g class="textpoint" transform="translate(7.25,-10.25)"><text x="50.16" y="66.08" text-anchor="start" style="font-family: 'Open Sans', verdana, arial, sans-serif; font-size: 12px; fill: rgb(42, 63, 95); fill-opacity: 1; white-space: pre;">64%</text></g><g class="textpoint" transform="translate(7.25,-10.25)"><text x="67.07" y="87.32" text-anchor="start" style="font-family: 'Open Sans', verdana, arial, sans-serif; font-size: 12px; fill: rgb(42, 63, 95); fill-opacity: 1; white-space: pre;">56%</text></g><g class="textpoint" transform="translate(7.25,-10.25)"><text x="83.98" y="135.1" text-anchor="start" style="font-family: 'Open Sans', verdana, arial, sans-serif; font-size: 12px; fill: rgb(42, 63, 95); fill-opacity: 1; white-space: pre;">38%</text></g><g class="textpoint" transform="translate(7.25,-10.25)"><text x="100.89" y="135.1" text-anchor="start" style="font-family: 'Open Sans', verdana, arial, sans-serif; font-size: 12px; fill: rgb(42, 63, 95); fill-opacity: 1; white-space: pre;">38%</text></g><g class="textpoint" transform="translate(7.25,-10.25)"><text x="117.8" y="140.41" text-anchor="start" style="font-family: 'Open Sans', verdana, arial, sans-serif; font-size: 12px; fill: rgb(42, 63, 95); fill-opacity: 1; white-space: pre;">36%</text></g><g class="textpoint" transform="translate(7.25,-10.25)"><text x="134.71" y="151.03" text-anchor="start" style="font-family: 'Open Sans', verdana, arial, sans-serif; font-size: 12px; fill: rgb(42, 63, 95); fill-opacity: 1; white-space: pre;">32%</text></g><g class="textpoint" transform="translate(7.25,-10.25)"><text x="151.63" y="156.34" text-anchor="start" style="font-family: 'Open Sans', verdana, arial, sans-serif; font-size: 12px; fill: rgb(42, 63, 95); fill-opacity: 1; white-space: pre;">30%</text></g><g class="textpoint" transform="translate(7.25,-10.25)"><text x="168.54" y="158.99" text-anchor="start" style="font-family: 'Open Sans', verdana, arial, sans-serif; font-size: 12px; fill: rgb(42, 63, 95); fill-opacity: 1; white-space: pre;">29%</text></g><g class="textpoint" transform="translate(7.25,-10.25)"><text x="185.45" y="180.23" text-anchor="start" style="font-family: 'Open Sans', verdana, arial, sans-serif; font-size: 12px; fill: rgb(42, 63, 95); fill-opacity: 1; white-space: pre;">21%</text></g><g class="textpoint" transform="translate(7.25,-10.25)"><text x="202.36" y="185.54" text-anchor="start" style="font-family: 'Open Sans', verdana, arial, sans-serif; font-size: 12px; fill: rgb(42, 63, 95); fill-opacity: 1; white-space: pre;">19%</text></g><g class="textpoint" transform="translate(7.25,-10.25)"><text x="219.27" y="185.54" text-anchor="start" style="font-family: 'Open Sans', verdana, arial, sans-serif; font-size: 12px; fill: rgb(42, 63, 95); fill-opacity: 1; white-space: pre;">19%</text></g><g class="textpoint" transform="translate(7.25,-10.25)"><text x="236.18" y="196.15" text-anchor="start" style="font-family: 'Open Sans', verdana, arial, sans-serif; font-size: 12px; fill: rgb(42, 63, 95); fill-opacity: 1; white-space: pre;">15%</text></g><g class="textpoint" transform="translate(7.25,-10.25)"><text x="253.09" y="198.81" text-anchor="start" style="font-family: 'Open Sans', verdana, arial, sans-serif; font-size: 12px; fill: rgb(42, 63, 95); fill-opacity: 1; white-space: pre;">14%</text></g><g class="textpoint" transform="translate(7.25,-10.25)"><text x="270" y="198.81" text-anchor="start" style="font-family: 'Open Sans', verdana, arial, sans-serif; font-size: 12px; fill: rgb(42, 63, 95); fill-opacity: 1; white-space: pre;">14%</text></g><g class="textpoint" transform="translate(7.25,-10.25)"><text x="286.91" y="204.12" text-anchor="start" style="font-family: 'Open Sans', verdana, arial, sans-serif; font-size: 12px; fill: rgb(42, 63, 95); fill-opacity: 1; white-space: pre;">12%</text></g><g class="textpoint" transform="translate(7.25,-10.25)"><text x="303.82" y="206.77" text-anchor="start" style="font-family: 'Open Sans', verdana, arial, sans-serif; font-size: 12px; fill: rgb(42, 63, 95); fill-opacity: 1; white-space: pre;">11%</text></g><g class="textpoint" transform="translate(7.25,-10.25)"><text x="320.73" y="206.77" text-anchor="start" style="font-family: 'Open Sans', verdana, arial, sans-serif; font-size: 12px; fill: rgb(42, 63, 95); fill-opacity: 1; white-space: pre;">11%</text></g><g class="textpoint" transform="translate(7.25,-10.25)"><text x="337.64" y="209.43" text-anchor="start" style="font-family: 'Open Sans', verdana, arial, sans-serif; font-size: 12px; fill: rgb(42, 63, 95); fill-opacity: 1; white-space: pre;">10%</text></g><g class="textpoint" transform="translate(7.25,-10.25)"><text x="354.55" y="209.43" text-anchor="start" style="font-family: 'Open Sans', verdana, arial, sans-serif; font-size: 12px; fill: rgb(42, 63, 95); fill-opacity: 1; white-space: pre;">10%</text></g><g class="textpoint" transform="translate(7.25,-10.25)"><text x="371.46" y="212.08" text-anchor="start" style="font-family: 'Open Sans', verdana, arial, sans-serif; font-size: 12px; fill: rgb(42, 63, 95); fill-opacity: 1; white-space: pre;">9%</text></g><g class="textpoint" transform="translate(7.25,-10.25)"><text x="388.38" y="214.74" text-anchor="start" style="font-family: 'Open Sans', verdana, arial, sans-serif; font-size: 12px; fill: rgb(42, 63, 95); fill-opacity: 1; white-space: pre;">8%</text></g><g class="textpoint" transform="translate(7.25,-10.25)"><text x="405.29" y="217.39" text-anchor="start" style="font-family: 'Open Sans', verdana, arial, sans-serif; font-size: 12px; fill: rgb(42, 63, 95); fill-opacity: 1; white-space: pre;">7%</text></g><g class="textpoint" transform="translate(7.25,-10.25)"><text x="422.2" y="217.39" text-anchor="start" style="font-family: 'Open Sans', verdana, arial, sans-serif; font-size: 12px; fill: rgb(42, 63, 95); fill-opacity: 1; white-space: pre;">7%</text></g><g class="textpoint" transform="translate(7.25,-10.25)"><text x="439.11" y="220.05" text-anchor="start" style="font-family: 'Open Sans', verdana, arial, sans-serif; font-size: 12px; fill: rgb(42, 63, 95); fill-opacity: 1; white-space: pre;">6%</text></g><g class="textpoint" transform="translate(7.25,-10.25)"><text x="456.02" y="220.05" text-anchor="start" style="font-family: 'Open Sans', verdana, arial, sans-serif; font-size: 12px; fill: rgb(42, 63, 95); fill-opacity: 1; white-space: pre;">6%</text></g><g class="textpoint" transform="translate(7.25,-10.25)"><text x="472.93" y="222.7" text-anchor="start" style="font-family: 'Open Sans', verdana, arial, sans-serif; font-size: 12px; fill: rgb(42, 63, 95); fill-opacity: 1; white-space: pre;">5%</text></g><g class="textpoint" transform="translate(7.25,-10.25)"><text x="489.84" y="222.7" text-anchor="start" style="font-family: 'Open Sans', verdana, arial, sans-serif; font-size: 12px; fill: rgb(42, 63, 95); fill-opacity: 1; white-space: pre;">5%</text></g><g class="textpoint" transform="translate(7.25,-10.25)"><text x="506.75" y="222.7" text-anchor="start" style="font-family: 'Open Sans', verdana, arial, sans-serif; font-size: 12px; fill: rgb(42, 63, 95); fill-opacity: 1; white-space: pre;">5%</text></g></g></g></g></g><g class="overplot"/><path class="xlines-above crisp" d="M79,341.5H620" style="fill: none; stroke-width: 1px; stroke: rgb(255, 255, 255); stroke-opacity: 1;"/><path class="ylines-above crisp" d="M79.5,100V341" style="fill: none; stroke-width: 1px; stroke: rgb(255, 255, 255); stroke-opacity: 1;"/><g class="overlines-above"/><g class="xaxislayer-above"><g class="xtick"><text text-anchor="start" x="0" y="356.4" transform="translate(113.25,0) rotate(90,0,350.4)" style="font-family: 'Open Sans', verdana, arial, sans-serif; font-size: 12px; fill: rgb(42, 63, 95); fill-opacity: 1; white-space: pre;">explosion</text></g><g class="xtick"><text text-anchor="start" x="0" y="356.4" transform="translate(130.16,0) rotate(90,0,350.4)" style="font-family: 'Open Sans', verdana, arial, sans-serif; font-size: 12px; fill: rgb(42, 63, 95); fill-opacity: 1; white-space: pre;">keras-team</text></g><g class="xtick"><text text-anchor="start" x="0" y="356.4" transform="translate(147.07,0) rotate(90,0,350.4)" style="font-family: 'Open Sans', verdana, arial, sans-serif; font-size: 12px; fill: rgb(42, 63, 95); fill-opacity: 1; white-space: pre;">huggingface</text></g><g class="xtick"><text text-anchor="start" x="0" y="356.4" transform="translate(163.98000000000002,0) rotate(90,0,350.4)" style="font-family: 'Open Sans', verdana, arial, sans-serif; font-size: 12px; fill: rgb(42, 63, 95); fill-opacity: 1; white-space: pre;">deepmind</text></g><g class="xtick"><text text-anchor="start" x="0" y="356.4" transform="translate(180.89,0) rotate(90,0,350.4)" style="font-family: 'Open Sans', verdana, arial, sans-serif; font-size: 12px; fill: rgb(42, 63, 95); fill-opacity: 1; white-space: pre;">google-research</text></g><g class="xtick"><text text-anchor="start" x="0" y="356.4" transform="translate(197.8,0) rotate(90,0,350.4)" style="font-family: 'Open Sans', verdana, arial, sans-serif; font-size: 12px; fill: rgb(42, 63, 95); fill-opacity: 1; white-space: pre;">tensorflow</text></g><g class="xtick"><text text-anchor="start" x="0" y="356.4" transform="translate(214.71,0) rotate(90,0,350.4)" style="font-family: 'Open Sans', verdana, arial, sans-serif; font-size: 12px; fill: rgb(42, 63, 95); fill-opacity: 1; white-space: pre;">dmlc</text></g><g class="xtick"><text text-anchor="start" x="0" y="356.4" transform="translate(231.63,0) rotate(90,0,350.4)" style="font-family: 'Open Sans', verdana, arial, sans-serif; font-size: 12px; fill: rgb(42, 63, 95); fill-opacity: 1; white-space: pre;">stanfordnlp</text></g><g class="xtick"><text text-anchor="start" x="0" y="356.4" transform="translate(248.54,0) rotate(90,0,350.4)" style="font-family: 'Open Sans', verdana, arial, sans-serif; font-size: 12px; fill: rgb(42, 63, 95); fill-opacity: 1; white-space: pre;">pytorch</text></g><g class="xtick"><text text-anchor="start" x="0" y="356.4" transform="translate(265.45,0) rotate(90,0,350.4)" style="font-family: 'Open Sans', verdana, arial, sans-serif; font-size: 12px; fill: rgb(42, 63, 95); fill-opacity: 1; white-space: pre;">RaRe-Technologies</text></g><g class="xtick"><text text-anchor="start" x="0" y="356.4" transform="translate(282.36,0) rotate(90,0,350.4)" style="font-family: 'Open Sans', verdana, arial, sans-serif; font-size: 12px; fill: rgb(42, 63, 95); fill-opacity: 1; white-space: pre;">baidu-research</text></g><g class="xtick"><text text-anchor="start" x="0" y="356.4" transform="translate(299.27,0) rotate(90,0,350.4)" style="font-family: 'Open Sans', verdana, arial, sans-serif; font-size: 12px; fill: rgb(42, 63, 95); fill-opacity: 1; white-space: pre;">openai</text></g><g class="xtick"><text text-anchor="start" x="0" y="356.4" transform="translate(316.18,0) rotate(90,0,350.4)" style="font-family: 'Open Sans', verdana, arial, sans-serif; font-size: 12px; fill: rgb(42, 63, 95); fill-opacity: 1; white-space: pre;">IBM</text></g><g class="xtick"><text text-anchor="start" x="0" y="356.4" transform="translate(333.09000000000003,0) rotate(90,0,350.4)" style="font-family: 'Open Sans', verdana, arial, sans-serif; font-size: 12px; fill: rgb(42, 63, 95); fill-opacity: 1; white-space: pre;">fastai</text></g><g class="xtick"><text text-anchor="start" x="0" y="356.4" transform="translate(350,0) rotate(90,0,350.4)" style="font-family: 'Open Sans', verdana, arial, sans-serif; font-size: 12px; fill: rgb(42, 63, 95); fill-opacity: 1; white-space: pre;">allenai</text></g><g class="xtick"><text text-anchor="start" x="0" y="356.4" transform="translate(366.91,0) rotate(90,0,350.4)" style="font-family: 'Open Sans', verdana, arial, sans-serif; font-size: 12px; fill: rgb(42, 63, 95); fill-opacity: 1; white-space: pre;">h2oai</text></g><g class="xtick"><text text-anchor="start" x="0" y="356.4" transform="translate(383.82,0) rotate(90,0,350.4)" style="font-family: 'Open Sans', verdana, arial, sans-serif; font-size: 12px; fill: rgb(42, 63, 95); fill-opacity: 1; white-space: pre;">uber</text></g><g class="xtick"><text text-anchor="start" x="0" y="356.4" transform="translate(400.73,0) rotate(90,0,350.4)" style="font-family: 'Open Sans', verdana, arial, sans-serif; font-size: 12px; fill: rgb(42, 63, 95); fill-opacity: 1; white-space: pre;">salesforce</text></g><g class="xtick"><text text-anchor="start" x="0" y="356.4" transform="translate(417.64,0) rotate(90,0,350.4)" style="font-family: 'Open Sans', verdana, arial, sans-serif; font-size: 12px; fill: rgb(42, 63, 95); fill-opacity: 1; white-space: pre;">baidu</text></g><g class="xtick"><text text-anchor="start" x="0" y="356.4" transform="translate(434.55,0) rotate(90,0,350.4)" style="font-family: 'Open Sans', verdana, arial, sans-serif; font-size: 12px; fill: rgb(42, 63, 95); fill-opacity: 1; white-space: pre;">intuit</text></g><g class="xtick"><text text-anchor="start" x="0" y="356.4" transform="translate(451.46,0) rotate(90,0,350.4)" style="font-family: 'Open Sans', verdana, arial, sans-serif; font-size: 12px; fill: rgb(42, 63, 95); fill-opacity: 1; white-space: pre;">amzn</text></g><g class="xtick"><text text-anchor="start" x="0" y="356.4" transform="translate(468.38,0) rotate(90,0,350.4)" style="font-family: 'Open Sans', verdana, arial, sans-serif; font-size: 12px; fill: rgb(42, 63, 95); fill-opacity: 1; white-space: pre;">eBay</text></g><g class="xtick"><text text-anchor="start" x="0" y="356.4" transform="translate(485.29,0) rotate(90,0,350.4)" style="font-family: 'Open Sans', verdana, arial, sans-serif; font-size: 12px; fill: rgb(42, 63, 95); fill-opacity: 1; white-space: pre;">microsoft</text></g><g class="xtick"><text text-anchor="start" x="0" y="356.4" transform="translate(502.2,0) rotate(90,0,350.4)" style="font-family: 'Open Sans', verdana, arial, sans-serif; font-size: 12px; fill: rgb(42, 63, 95); fill-opacity: 1; white-space: pre;">spotify</text></g><g class="xtick"><text text-anchor="start" x="0" y="356.4" transform="translate(519.11,0) rotate(90,0,350.4)" style="font-family: 'Open Sans', verdana, arial, sans-serif; font-size: 12px; fill: rgb(42, 63, 95); fill-opacity: 1; white-space: pre;">oracle</text></g><g class="xtick"><text text-anchor="start" x="0" y="356.4" transform="translate(536.02,0) rotate(90,0,350.4)" style="font-family: 'Open Sans', verdana, arial, sans-serif; font-size: 12px; fill: rgb(42, 63, 95); fill-opacity: 1; white-space: pre;">twitter</text></g><g class="xtick"><text text-anchor="start" x="0" y="356.4" transform="translate(552.9300000000001,0) rotate(90,0,350.4)" style="font-family: 'Open Sans', verdana, arial, sans-serif; font-size: 12px; fill: rgb(42, 63, 95); fill-opacity: 1; white-space: pre;">google</text></g><g class="xtick"><text text-anchor="start" x="0" y="356.4" transform="translate(569.8399999999999,0) rotate(90,0,350.4)" style="font-family: 'Open Sans', verdana, arial, sans-serif; font-size: 12px; fill: rgb(42, 63, 95); fill-opacity: 1; white-space: pre;">fizyr</text></g><g class="xtick"><text text-anchor="start" x="0" y="356.4" transform="translate(586.75,0) rotate(90,0,350.4)" style="font-family: 'Open Sans', verdana, arial, sans-serif; font-size: 12px; fill: rgb(42, 63, 95); fill-opacity: 1; white-space: pre;">Netflix</text></g></g><g class="yaxislayer-above"><g class="ytick"><text text-anchor="end" x="76.6" y="4.199999999999999" transform="translate(0,335.97)" style="font-family: 'Open Sans', verdana, arial, sans-serif; font-size: 12px; fill: rgb(42, 63, 95); fill-opacity: 1; white-space: pre;">0</text></g><g class="ytick"><text text-anchor="end" x="76.6" y="4.199999999999999" transform="translate(0,282.88)" style="font-family: 'Open Sans', verdana, arial, sans-serif; font-size: 12px; fill: rgb(42, 63, 95); fill-opacity: 1; white-space: pre;">20</text></g><g class="ytick"><text text-anchor="end" x="76.6" y="4.199999999999999" transform="translate(0,229.79)" style="font-family: 'Open Sans', verdana, arial, sans-serif; font-size: 12px; fill: rgb(42, 63, 95); fill-opacity: 1; white-space: pre;">40</text></g><g class="ytick"><text text-anchor="end" x="76.6" y="4.199999999999999" transform="translate(0,176.7)" style="font-family: 'Open Sans', verdana, arial, sans-serif; font-size: 12px; fill: rgb(42, 63, 95); fill-opacity: 1; white-space: pre;">60</text></g><g class="ytick"><text text-anchor="end" x="76.6" y="4.199999999999999" transform="translate(0,123.61)" style="font-family: 'Open Sans', verdana, arial, sans-serif; font-size: 12px; fill: rgb(42, 63, 95); fill-opacity: 1; white-space: pre;">80</text></g></g><g class="overaxes-above"/></g></g><g class="polarlayer"/><g class="ternarylayer"/><g class="geolayer"/><g class="funnelarealayer"/><g class="pielayer"/><g class="treemaplayer"/><g class="sunburstlayer"/><g class="glimages"/><defs id="topdefs-c74c16"><g class="clips"/></defs><g class="layer-above"><g class="imagelayer"/><g class="shapelayer"/></g><g class="infolayer"><g class="g-gtitle"><text class="gtitle" x="35" y="50" text-anchor="start" dy="0em" style="font-family: 'Open Sans', verdana, arial, sans-serif; font-size: 17px; fill: rgb(42, 63, 95); opacity: 1; font-weight: normal; white-space: pre;">Portion of Data Science / Machine Learning tools over all repos</text></g><g class="g-xtitle"><text class="xtitle" x="350" y="487.762890625" text-anchor="middle" style="font-family: 'Open Sans', verdana, arial, sans-serif; font-size: 14px; fill: rgb(42, 63, 95); opacity: 1; font-weight: normal; white-space: pre;">Organizations</text></g><g class="g-ytitle"><text class="ytitle" transform="rotate(-90,35.528125,220.5)" x="35.528125" y="220.5" text-anchor="middle" style="font-family: 'Open Sans', verdana, arial, sans-serif; font-size: 14px; fill: rgb(42, 63, 95); opacity: 1; font-weight: normal; white-space: pre;">Percentage value</text></g></g></svg>